<svg width="47" height="75" viewBox="0 0 47 75" fill="none" xmlns="http://www.w3.org/2000/svg">
<path d="M5.5 19.5C5.5 16 6.5 12 8.5 9.5C11.1504 6.18706 17.8902 5 22.5 5C27 5 36.5 6.5 39.5 12C41.1002 14.9336 41.9999 18.5 41.5 24.5M41.5 24.5C41.9209 29.4388 41.5 34.6669 41.5 37C41.5 41 41.5 53 41.5 57.5C38 63 34.5 66.9687 31 68.5C27.4999 70.0313 16.5 70 13.5 68.5C10.5 67 5 60.5 5 56.5C5 52.5 5.14517 50.4193 5.5 49C6.50003 45 7.49997 44 10.5 41.5C13.5 39 17.5 38.5 21 37C24.5 35.5 34 31.5 35.5 30.5C38.0994 28.7671 40.5099 25.3333 41.5 24.5Z" stroke="#FF9C09" stroke-width="10"/>
</svg>
