<svg width="337" height="305" viewBox="0 0 337 305" fill="none" xmlns="http://www.w3.org/2000/svg">
<circle cx="37" cy="137" r="4" fill="#FF9C09"/>
<circle cx="34" cy="38" r="3" fill="#FF9C09"/>
<circle cx="321" cy="168" r="3" fill="#FF9C09"/>
<circle cx="164" cy="198" r="3" fill="#FF9C09"/>
<circle cx="292" cy="108" r="3" fill="#FF9C09"/>
<circle cx="12.5" cy="214.5" r="2.5" fill="#FF9C09"/>
<circle cx="145.5" cy="152.5" r="2.5" fill="#FF9C09"/>
<circle cx="264.5" cy="2.5" r="2.5" fill="#FF9C09"/>
<path d="M83 24C82.5 26.5 79 34 75 36.5C77 37.5 79.5 41.5 80.5 43C81.5 44.5 83 49.5 83 48.5C83 47.5 85.5 43 86.5 41.5C87.3 40.3 89.8333 37.6667 91 36.5C89.6667 35.6667 86.5 33 86 32.5C85.5 32 83.6864 20.568 83 24Z" stroke="#FF9C09"/>
<path d="M93.5 20.5C95.5 19 99.5 20 100 21C100.5 22 105.5 22.5 106 21C106.5 19.5 111.5 19 113 20.5C114.5 22 121 22.5 122 20.5C123 18.5 127 19 130 20.5" stroke="#BBBBBB" stroke-linecap="round"/>
<path d="M97 182.431C99.0822 180.804 103.247 181.888 103.767 182.973C104.288 184.058 109.493 184.6 110.014 182.973C110.534 181.346 115.74 180.804 117.301 182.431C118.863 184.058 125.63 184.6 126.671 182.431C127.712 180.261 131.877 180.804 135 182.431" stroke="#BBBBBB" stroke-linecap="round"/>
<path d="M97 182.431C99.0822 180.804 103.247 181.888 103.767 182.973C104.288 184.058 109.493 184.6 110.014 182.973C110.534 181.346 115.74 180.804 117.301 182.431C118.863 184.058 125.63 184.6 126.671 182.431C127.712 180.261 131.877 180.804 135 182.431" stroke="#BBBBBB" stroke-linecap="round"/>
<path d="M251 79.4308C253.082 77.8038 257.247 78.8885 257.767 79.9731C258.288 81.0578 263.493 81.6002 264.014 79.9731C264.534 78.3461 269.74 77.8038 271.301 79.4308C272.863 81.0578 279.63 81.6001 280.671 79.4308C281.712 77.2615 285.877 77.8038 289 79.4308" stroke="#BBBBBB" stroke-linecap="round"/>
<path d="M277 46.4308C279.082 44.8038 283 44 283.767 46.9731C284.29 49 289.045 50 290.014 46.9731C290.534 45.3461 295.5 43.5 297.301 46.4308C298.482 48.3521 304 50 306.671 46.4308C308.113 44.5044 313 44 315.5 46.9731C315.833 47.1488 317.5 50 321.5 47" stroke="#BBBBBB" stroke-linecap="round"/>
<path d="M261.5 25C266.5 24 267.5 24 269.5 25C271.5 26 273 28 277.5 26C282 24 281.5 24.5 285.5 26C289.5 27.5 292 26.5 293.5 25C295 23.5 298.5 21.5 301.5 23.5C304.5 25.5 306 24.5 308 23.5C310 22.5 312.5 24 314.5 25C316.5 26 319.5 26 321.5 24" stroke="#BBBBBB" stroke-linecap="round"/>
<path d="M120.992 298.164C118.024 296.069 114.996 292.934 114.206 289.249C113.822 287.457 115.729 287.953 115.102 285.905C114.867 285.138 108.513 274.522 111.321 274.522C113.279 274.522 110.775 267.874 110.525 266.92C109.216 261.928 107.723 257.123 105.788 252.333C105.263 251.033 105.036 249.815 104.793 248.452C104.564 247.16 105.33 248.173 105.948 248.651C107.554 249.897 107.531 246.813 107.818 245.706C108.221 244.157 108.599 242.626 108.754 241.029C108.809 240.455 109.099 238.851 108.734 239.298C107.514 240.789 108.132 245.685 108.176 247.318C108.317 252.43 109.525 256.752 112.714 260.791C116.273 265.299 119.838 270.988 121.749 276.433C122.366 278.192 122.168 279.985 122.624 281.746C122.972 283.088 123.27 279.032 123.321 277.647C123.5 272.813 124.203 267.285 123.082 262.522C122.951 261.966 121.32 258.957 121.649 259.716C122.449 261.562 123.354 263.362 124.057 265.248C124.43 266.247 124.8 265.7 125.45 265.049C125.889 264.611 126.724 263.044 126.724 264.353C126.724 267.162 126.579 270.02 126.963 272.811C127.728 278.375 129.821 284.032 131.46 289.408C132.581 293.082 133.92 296.452 135.321 299.955" stroke="#BBBBBB" stroke-linecap="round"/>
<path d="M71.5593 302.821C76.4238 300.217 81.3306 297.983 85.8479 294.801C86.4979 294.343 89.5685 291.61 90.5644 291.816C95.2462 292.784 99.7188 295.06 104.316 296.373C107.896 297.396 111.656 297.649 114.903 299.597" stroke="#BBBBBB" stroke-linecap="round"/>
<path d="M105.589 303.895C109.968 302.512 113.408 299.827 118.087 299.04C122.459 298.304 126.01 300.106 130.186 300.671C132.245 300.95 134.775 301.393 136.833 300.87C138.564 300.431 139.932 299.955 141.769 299.955C144.712 299.955 147.21 301.047 150.007 301.746" stroke="#BBBBBB" stroke-linecap="round"/>
<path d="M15.4889 280.231C16.433 279.219 18.3453 278.642 19.5401 278.152C22.7546 276.833 26.0493 275.763 29.375 274.767C31.3694 274.169 33.3522 273.462 35.3719 272.954C37.5107 272.417 39.7814 272.518 41.9684 272.435C45.1718 272.312 48.4282 272.134 51.6034 272.688C55.0878 273.296 58.365 274.951 61.918 275.14C70.0094 275.57 78.1564 272.257 86.212 273.767C88.2265 274.145 90.2451 274.506 92.2888 274.7C93.3392 274.8 94.4949 273.75 95.3672 273.274" stroke="#BBBBBB" stroke-linecap="round"/>
<path d="M0.856445 249.527C4.32434 247.891 7.8259 246.196 10.7446 243.663C12.5399 242.105 13.544 242.21 15.9153 242.557C17.6485 242.811 19.736 240.88 21.1792 240.132C24.9923 238.153 28.1798 240.223 31.9602 241.371C38.3102 243.3 44.7574 244.029 50.897 246.648C53.7715 247.875 56.8416 249.011 59.8657 249.767" stroke="#BBBBBB" stroke-linecap="round"/>
<path d="M50.2708 246.648C51.7109 246.545 53.1229 246.257 54.5085 245.849C55.6016 245.527 56.4471 244.744 57.5336 244.436C58.7631 244.088 61.3276 244.272 62.2645 245.209" stroke="#BBBBBB" stroke-linecap="round"/>
<path d="M73.0589 244.969C71.6612 244.058 70.4883 242.655 69.2742 241.531C67.1104 239.527 64.6606 237.695 62.7443 235.441C62.2011 234.802 61.568 233.943 61.7181 233.042C61.862 232.179 62.5243 232.815 63.0108 232.815C63.8968 232.815 62.269 231.202 61.8114 230.443C60.9639 229.038 60.0845 227.638 59.306 226.192C59.1031 225.815 61.2111 226.934 61.2517 226.579C61.3974 225.303 59.7443 223.136 59.2261 222.234C57.2 218.709 55.1081 215.422 54.0021 211.48C53.5681 209.933 51.794 205.659 52.9494 206.776C53.8921 207.687 54.4359 208.936 55.2015 210.001C57.6694 213.432 60.4164 216.592 63.1174 219.835C66.1081 223.427 68.6811 227.187 70.9533 231.27C72.3747 233.824 73.3664 236.507 74.6181 239.132C75.1281 240.202 75.7207 241.243 76.4971 242.144C76.7684 242.459 77.2683 242.774 76.657 242.57" stroke="#BBBBBB" stroke-linecap="round"/>
<path d="M64.9031 220.502C62.5932 216.074 61.0135 211.192 58.8929 206.656C58.3293 205.45 57.8155 204.393 57.387 203.151C57.2615 202.787 56.8655 202.093 57.2404 202.005C57.7071 201.895 58.5336 203.319 58.9062 203.071C59.2306 202.855 57.508 199.688 57.507 199.686C56.2498 197.048 55.2222 194.412 54.5219 191.57C53.4808 187.346 52.5492 183.144 52.0831 178.817C52.044 178.454 51.7372 177.474 52.0032 177.724C53.0462 178.706 53.8563 180.533 54.6418 181.695C58.0891 186.798 61.1792 191.835 63.224 197.687C66.0531 205.784 70.0762 213.692 71.6196 222.181" stroke="#BBBBBB" stroke-linecap="round"/>
<path d="M68.5012 209.947C68.175 207.827 67.4569 205.788 67.0486 203.684C66.8132 202.471 67.7104 203.673 68.0481 204.03C69.4758 205.543 70.7833 207.153 72.0327 208.815C72.7659 209.79 73.4825 210.777 74.2049 211.76C75.2347 213.161 74.8486 212.75 74.4981 211.84C73.7919 210.006 73.1225 207.859 73.2054 205.869C73.2216 205.48 73.1624 204.85 73.5386 204.75C73.9696 204.635 74.3587 205.152 74.658 205.483C75.3057 206.199 75.8416 207.014 76.3371 207.842C79.8073 213.642 81.7451 220.145 83.8532 226.512C84.7548 229.235 86.3553 231.593 87.6512 234.135C88.7214 236.234 89.7021 238.324 90.0899 240.651" stroke="#BBBBBB" stroke-linecap="round"/>
<path d="M93.6881 213.306C95.75 210.986 99.6229 210.499 102.524 210.001C106.504 209.316 110.397 209.368 114.317 210.307C116.429 210.813 118.677 211.44 120.847 211.626C121.479 211.681 121.881 211.817 122.233 212.346" stroke="#BBBBBB" stroke-linecap="round"/>
<path d="M92.4886 235.614C95.4565 231.302 101.142 232.455 105.682 233.268C107.797 233.647 109.754 234.422 111.759 235.161C114.429 236.145 117.271 236.439 120.061 236.92C126.165 237.972 132.027 239.897 138.185 240.731C140.07 240.987 142.186 241.109 143.822 242.091" stroke="#BBBBBB" stroke-linecap="round"/>
<path d="M139.264 240.891C143.609 237.52 148.65 236.081 154.163 236.387C155.05 236.436 155.904 236.813 156.775 236.813" stroke="#BBBBBB" stroke-linecap="round"/>
<path d="M131.348 229.617C137.231 226.754 140.711 220.958 146.5 217.983C151.335 215.499 157.21 215.636 162.492 216.104C166.831 216.489 171.174 216.922 175.512 217.33C176.144 217.39 177.213 217.192 177.644 217.623" stroke="#BBBBBB" stroke-linecap="round"/>
<path d="M190.466 293.186C196.238 290.817 202.017 288.327 208.221 287.349C216.631 286.023 225.232 285.603 233.735 285.501C238.287 285.447 242.749 285.449 247.244 286.236C250.957 286.885 254.653 287.699 258.404 288.12C261.425 288.459 264.477 288.481 267.508 288.695C271.527 288.979 275.481 289.765 279.5 290.09C286.947 290.692 294.224 291.331 301.697 290.983" stroke="#BBBBBB" stroke-linecap="round"/>
<path d="M237.822 259.486C249.115 258.144 260.532 257.239 271.913 257.284C277.67 257.306 283.269 258.385 289.007 258.617C293.049 258.781 297.083 259.048 301.036 259.927" stroke="#BBBBBB" stroke-linecap="round"/>
<path d="M286.279 257.284C286.442 255.841 286.32 251.362 288.114 250.615C289.22 250.154 290.289 251.711 291.027 251.483C291.263 251.411 291.337 247.764 291.43 247.396C291.97 245.281 293.506 243.769 295.163 242.453C295.25 242.384 297.354 240.71 297.475 240.972C297.549 241.132 297.604 242.943 297.659 242.893C298.072 242.516 298.218 241.924 298.515 241.449C299.572 239.762 300.798 238.188 302.015 236.616C303.528 234.662 305.038 232.693 306.567 230.755C307.159 230.005 306.015 233.938 305.906 234.181C304.919 236.379 303.62 238.428 302.603 240.617C301.748 242.456 300.866 244.28 299.972 246.099C299.323 247.419 299.45 247.933 300.816 246.736C301.173 246.422 304.064 243.693 304.071 243.75C304.362 246.005 303.138 248.698 302.284 250.7C300.937 253.86 298.445 256.176 297.072 259.266" stroke="#BBBBBB" stroke-linecap="round"/>
<path d="M283.415 235.037C286.096 231.752 289.088 228.085 293.327 226.973C299.225 225.427 305.015 224.495 311.119 224.049C315.682 223.715 320.034 225.637 324.58 225.762C328.421 225.868 332.069 225.59 335.837 224.905" stroke="#BBBBBB" stroke-linecap="round"/>
<path d="M91.5 68.5L100.5 52H139L146.5 68.5L121.5 108.5L91.5 68.5Z" fill="#FDFDFD"/>
<path d="M91.5 68.5L100.5 52M91.5 68.5L121.5 108.5M91.5 68.5L109.5 62M100.5 52H139M100.5 52L109.5 62M100.5 52L108.5 55.5M139 52L146.5 68.5M139 52L131 62M139 52L131 55.5M146.5 68.5L121.5 108.5M146.5 68.5L131 62M121.5 108.5L109.5 62M121.5 108.5L131 62M109.5 62H131M109.5 62L108.5 55.5M131 62V55.5M131 55.5H108.5" stroke="#FF9C09" stroke-linecap="round"/>
<path d="M140.484 42.4918C141.471 42.1282 142.292 41.416 143.292 41.0571C144.619 40.5806 146.104 40.4815 147.503 40.4482C148.971 40.4132 150.361 40.2402 151.817 40.4482" stroke="#FF9C09" stroke-linecap="round"/>
<path d="M135.282 36.9183C137.844 34.8715 140.385 32.8443 142.466 30.2921C142.727 29.9719 142.959 29.6817 143.085 29.3013" stroke="#FF9C09" stroke-linecap="round"/>
<path d="M128.408 36.7325C129.899 34.1292 131.227 31.297 131.546 28.2691C131.63 27.4722 131.577 26.7482 131.753 25.9572" stroke="#FF9C09" stroke-linecap="round"/>
<g filter="url(#filter0_f_19_176)">
<path d="M204.5 186L195 146L185.5 155L177 162.5H166.5L160 155V141.5L158.5 123L162.5 108.5L158.5 100.5L153 108.5L146 100.5L153 92.5V88.5L162.5 79H171L174 83.5V96L171 106L174 123V139.5L182 134.5L189 123L192 114L204.5 108.5L213.5 103.5L210.5 100.5L199.5 103.5L195 96L189 88.5L185.5 79V69L189 57L192 45L195 35.5H208L217.5 28L226.5 23V28H232.5L241 23V28V35.5H243.5L250.5 28V39V45H254L250.5 57V69L243.5 79L229.5 83.5V100.5L250.5 111.5L262 128.5V157.5L259 181V197.5L254 225L262 215.5L297 220L301.5 225L262 240.5L195 280.5L177 270L162.5 274.5L149.5 246.5L202 195L195 186H204.5Z" fill="#FDFDFD"/>
</g>
<g filter="url(#filter1_f_19_176)">
<path d="M223 65V55.5L226.5 63L228 68.5L232 65L237 68.5V74L235.5 77L232 79H226.5L228 83.5V98V104.5L224.5 107L220 94L201.5 102.5L204.5 101C206.167 99.5 209.7 96.3 210.5 95.5C211.3 94.7 214.5 89.5 216 87C217.333 84 220 77.8 220 77C220 76.2 222 68.6667 223 65Z" fill="#DDDDDD"/>
<path d="M180 157.5C181.667 156.667 185.1 154.7 185.5 153.5L180 155L174.5 155.5L167.5 153.5L163.5 149V141.5L162 127L163.5 102.5L166 91L156.5 101L161 105.5L162 111.5L159 121V131V141.5V150.5L162 157.5L169.5 161L174.5 160L180 157.5Z" fill="#DDDDDD"/>
<path d="M258.5 121L254 117V127L256.5 134L254 141.5V149V161L251 168.5L248.5 177L245 183L238.5 190C239.833 189.333 243 188 245 188C247 188 249.833 184.667 251 183L256.5 179.5C257.667 177.833 260 174.3 260 173.5V163V155.5V146.5V138.5V134V128.5L258.5 121Z" fill="#DDDDDD"/>
<path d="M248.5 198L256.5 194V201V209L254 215.5L252.5 221L251 227L256.5 234L252.5 239L245 245L235.5 251.5L225.5 257L215 260.5L205.5 263V260.5L210 255.5L218 248L229 236.5L238.5 225L243.5 215.5L248.5 205V198Z" fill="#DDDDDD"/>
</g>
<path d="M188.507 57.3645C188.298 55.5913 188.265 53.7659 188.789 52.0456C189.567 49.4947 190.622 47.0411 191.364 44.4834C191.881 42.7022 192.148 40.6156 192.979 38.9528C194.23 36.4516 197.757 34.941 200.386 34.6568C201.893 34.494 203.408 34.5539 204.915 34.4169C206.857 34.2404 208.618 33.5603 210.347 32.6886C214.639 30.5255 218.099 27.455 221.86 24.5198C222.929 23.6854 224.127 22.9781 225.161 22.1072C225.616 21.7242 226.446 20.5578 226.48 21.6769C226.507 22.5315 226.593 23.3822 226.6 24.2376C226.612 25.6065 226.473 26.968 226.473 28.3361C226.473 30.7473 232.881 26.8973 233.796 26.4809C235.234 25.8263 236.648 25.254 237.972 24.3787C238.416 24.0846 239.352 23.6705 239.601 23.1442C239.874 22.5689 240.231 24.036 240.257 24.1106C241.103 26.5053 241.215 28.7158 240.427 31.1367C240.08 32.2015 239.464 33.2949 239.347 34.424C239.26 35.2694 240.579 35.0946 241.104 35.0589C243.994 34.8618 247.149 33.0315 248.003 30.1632C248.06 29.97 248.313 28.4916 248.313 28.8088C248.313 30.1911 248.394 31.5567 248.567 32.9285C248.873 35.3418 248.765 37.3263 248.186 39.6724C247.963 40.5785 247.718 41.4666 247.424 42.353C247.142 43.205 247.015 44.19 246.649 45.0054C246.617 45.0754 246.05 45.7113 246.084 45.7532C246.348 46.0773 248.634 45.4609 248.955 45.3793C250.32 45.0327 251.611 44.346 252.758 43.5381C253.218 43.2135 252.9 43.9966 252.892 44.3494C252.824 47.0611 252.327 49.1698 250.818 51.4742C249.702 53.1778 248.202 54.5033 247.932 56.6027C247.658 58.7453 248.13 60.7875 248.469 62.8951C248.834 65.1684 249.186 68.2748 247.848 70.288C247.26 71.1727 246.415 71.8433 245.774 72.6865C245.188 73.4567 244.682 74.2949 244.067 75.0426C242.387 77.084 239.815 78.4165 237.52 79.642C235.158 80.9036 232.727 82.1185 230.106 82.7318C229.955 82.7671 228.241 83.2592 228.06 83.0986C227.541 82.6369 227.787 81.2304 227.736 80.6225C227.706 80.258 227.529 79.9529 227.644 79.5714C227.728 79.2937 228.923 80.0062 229.21 80.0652C230.082 80.244 231.195 80.1172 232.06 79.9665C233.043 79.7952 233.979 79.4212 234.776 78.8096C236.175 77.7363 236.433 76.2548 236.998 74.6899C237.247 74.0021 237.69 73.3373 237.873 72.63C237.976 72.2335 237.918 71.7607 237.965 71.3532C238.061 70.505 237.78 69.6289 237.309 68.9124C236.718 68.0151 236.059 66.8661 235.087 66.3376C233.828 65.6537 231.499 65.8017 230.29 66.5069C229.38 67.0373 228.654 67.8389 227.729 68.3269C226.987 68.718 227.367 66.4883 227.362 66.1542C227.344 64.9281 226.687 63.7231 226.346 62.5565C225.913 61.0719 225.678 59.5329 225.246 58.0559C224.738 56.322 223.639 54.8893 222.361 53.654C221.322 52.6507 219.948 52.2101 218.714 51.5095C214.195 48.9451 208.891 46.073 203.519 47.157C201.802 47.5033 200.331 48.3017 198.764 49.0405C196.487 50.1137 194.249 51.1409 192.345 52.8216C190.971 54.0333 189.729 55.7611 188.662 57.2517C188.081 58.0631 188.403 58.4643 188.479 59.4667C188.562 60.5702 188.022 61.3366 187.682 62.3378C187.132 63.9532 186.703 65.6006 186.348 67.2688C185.204 72.6555 186.345 78.0689 187.181 83.3878C187.454 85.1265 187.873 86.7297 188.747 88.2623C189.807 90.1223 190.653 92.0569 191.78 93.8775C193.824 97.1771 196.805 100.521 200.161 102.54C202.69 104.062 205.531 103.342 208.146 102.491C210.48 101.732 212.696 100.894 214.756 99.5421C216.614 98.3232 218.18 96.7885 219.659 95.1332C220.899 93.7446 221.965 92.0207 222.988 90.4633C223.933 89.0252 224.489 87.3857 225.359 85.9062C226.135 84.5851 226.642 83.2943 227.616 82.1251" stroke="#111111" stroke-linecap="round"/>
<path d="M202.348 56.4757C204.122 54.9007 206.178 53.1313 208.753 53.7527C210.093 54.0761 211.448 54.5835 212.675 55.213C213.612 55.6932 213.867 56.8176 214.439 57.6185C214.714 58.0035 215.092 58.3463 215.299 58.7613" stroke="#111111" stroke-linecap="round"/>
<path d="M204.633 66.8878C205.355 67.4152 205.865 68.1982 206.637 68.6655C207.225 69.0221 208.045 68.956 208.704 68.9053C210.069 68.8003 210.799 67.9236 211.49 66.8878" stroke="#111111" stroke-linecap="round"/>
<path d="M197.903 83.5218C197.234 83.5218 196.772 85.6294 196.69 86.1319C196.515 87.1986 196.585 88.4688 196.761 89.5321C196.892 90.3277 197.134 91.4994 197.805 92.0293C198.364 92.472 199.318 92.8467 199.935 92.3256C200.878 91.5284 201.034 90.1814 201.303 89.0524C201.693 87.4178 201.767 85.4676 201.303 83.8463C201.097 83.1225 200.669 82.4722 199.879 82.4073C199.153 82.3476 198.514 82.5915 198.087 83.1973C197.929 83.4203 197.885 83.7852 197.649 83.9028" stroke="#111111" stroke-linecap="round"/>
<path d="M191.174 63.7134C191.174 65.3321 191.327 66.9176 191.435 68.5315C191.46 68.9182 191.623 69.8609 191.808 68.9336C191.994 68.0074 191.935 67.044 191.935 66.1048C191.935 65.5766 192.186 64.1588 191.653 63.7698C191.545 63.6907 191.077 63.5567 190.983 63.6711C190.383 64.4047 190.666 66.0498 190.666 66.9513C190.666 67.8149 190.537 68.7901 190.764 69.6249C191.005 70.5061 191.72 69.8153 191.935 69.371C192.521 68.1649 192.414 66.51 192.288 65.2089C192.192 64.2166 191.985 63.2055 190.92 63.2055" stroke="#111111" stroke-linecap="round"/>
<path d="M195.11 57.3645C194.52 57.0207 193.899 55.9479 193.445 55.4387C193.106 55.0587 192.235 53.6328 191.653 53.5552C190.741 53.4336 190.081 53.7776 189.276 54.1266C187.815 54.7596 186.117 56.1298 185.714 57.7455" stroke="#111111" stroke-linecap="round"/>
<path d="M227.743 82.633C227.743 84.2131 227.954 85.7494 227.799 87.3382C227.451 90.9188 227.735 94.5223 228.004 98.1031C228.137 99.8782 228.378 101.668 228.378 103.45C228.378 103.909 228.483 104.474 228.216 104.875C227.774 105.538 227.013 105.957 226.374 106.406C225.045 107.34 224.046 108.524 222.847 109.602C221.567 110.752 220.237 112.113 218.403 112.035C216.902 111.972 215.923 109.11 215.624 108C215.112 106.099 214.422 104.246 214.255 102.286C214.211 101.767 214.337 100.744 214.029 100.283" stroke="#111111" stroke-linecap="round"/>
<path d="M213.572 102.774C213.391 102.051 208.035 104.414 207.457 104.716C204.38 106.322 201.523 108.198 198.667 110.158C197.359 111.056 196.022 111.905 194.761 112.871C193.587 113.772 192.933 114.741 192.247 116.043C190.685 119.006 188.485 121.409 187.233 124.558C186.259 127.006 184.392 128.875 182.838 130.963C181.227 133.127 179.508 135.122 177.74 137.154C176.727 138.318 175.609 139.964 174.086 140.472" stroke="#111111" stroke-linecap="round"/>
<path d="M173.673 144.461C173.673 139.97 173.811 135.491 173.811 131.001C173.811 128.658 173.256 126.399 172.955 124.084C172.567 121.103 172.311 118.106 171.915 115.126C171.343 110.811 170.784 106.389 170.784 102.033C170.784 100.908 171.66 100.007 172.16 99.0522C172.894 97.6507 173.052 95.9813 173.322 94.4356C173.736 92.0613 174.414 89.2102 173.811 86.7999C173.567 85.8245 172.919 84.7479 172.282 83.9871C171.173 82.6615 170.071 82.3627 168.407 82.0151C167.536 81.833 166.706 81.7886 165.862 82.1374C164.08 82.8734 164.669 85.1138 165.464 86.4024C166.06 87.3661 166.92 87.6558 167.727 88.3285C168.18 88.7062 168.353 89.2636 168.858 89.5667" stroke="#111111" stroke-linecap="round"/>
<path d="M194.998 143.361C194.78 143.906 194.286 144.39 193.967 144.882C193.061 146.274 191.901 147.424 190.764 148.627C189.22 150.26 187.827 152.03 186.27 153.649C184.43 155.561 181.706 156.984 179.406 158.273C177.426 159.383 175.27 160.497 173.062 161.078C171.554 161.475 170.03 161.596 168.476 161.506C165.485 161.333 162.942 159.364 161.383 156.874C160.685 155.76 160.383 154.522 159.977 153.289C159.555 152.012 159.024 150.914 158.899 149.552C158.628 146.601 158.188 143.571 158.41 140.617C159.05 132.074 158.658 123.441 160.106 114.973C160.607 112.047 161.291 109.122 161.291 106.145C161.291 105.225 160.53 105.03 160.053 104.288C159.41 103.287 158.5 102.508 157.852 101.536" stroke="#111111" stroke-linecap="round"/>
<path d="M155.375 90.2547C156.694 91.511 159.061 93.2298 160.978 92.4407C162.278 91.9055 161.293 89.735 160.764 89.0547C159.958 88.0182 158.98 87.1123 158.081 86.1578C157.513 85.5554 157.152 85.3582 156.338 85.2253C155.409 85.0736 155.122 85.1067 154.55 85.8215C153.978 86.536 153.351 87.3362 153.189 88.2674C152.9 89.9326 153.174 91.8684 153.174 93.5566" stroke="#111111" stroke-linecap="round"/>
<path d="M161.566 90.1171C163.283 90.2244 164.27 89.6082 163.737 87.7324C163.292 86.1648 161.509 84.6645 160.298 83.6508C159.32 82.8333 157.958 82.012 156.659 82.7795C155.773 83.303 155.788 83.9421 155.788 84.889" stroke="#111111" stroke-linecap="round"/>
<path d="M163.905 87.2279C165.124 86.9668 164.681 86.4657 164.563 85.6075C164.426 84.6186 164.165 84.1196 163.76 83.2075C163.004 81.5057 162.129 80.3489 160.091 80.3489C158.677 80.3489 157.301 80.4932 157.301 82.275" stroke="#111111" stroke-linecap="round"/>
<path d="M166.244 81.4495C165.919 78.2791 161.134 76.7716 159.778 79.9362" stroke="#111111" stroke-linecap="round"/>
<path d="M168.445 89.7043C166.196 91.6215 163.846 93.3355 161.482 95.1082C160.08 96.1602 159.24 97.5708 158.127 98.9222C157.314 99.909 156.615 100.976 155.712 101.888C154.896 102.711 153.941 103.357 153.136 104.196C152.954 104.386 152.579 105.039 152.28 105.106C151.569 105.264 150.634 105.035 149.994 104.746C147.805 103.757 146.845 101.85 146.845 99.5031C146.845 98.3573 147.225 98.1614 148.236 97.7452C148.971 97.4426 149.548 96.9663 150.117 96.4152C150.961 95.5965 151.899 94.9845 152.815 94.2521C153.986 93.3151 155.288 92.4053 156.338 91.3553" stroke="#111111" stroke-linecap="round"/>
<path d="M148.083 98.0968C148.862 98.1104 149.904 98.0376 150.56 98.5401C151.431 99.2069 152.038 100.288 152.486 101.261C152.921 102.204 153.174 103.115 153.174 104.15" stroke="#111111" stroke-linecap="round"/>
<path d="M172.848 83.926C173.289 82.8236 174.681 81.9592 175.431 81.0215C175.693 80.6949 176.021 80.4156 176.287 80.0737" stroke="#111111" stroke-linecap="round"/>
<path d="M166.106 79.5234C167.894 78.8283 169.307 77.1975 171.059 76.4966" stroke="#111111" stroke-linecap="round"/>
<path d="M171.472 75.2584C175.138 79.0203 179.345 81.5142 184.802 81.7782C188.319 81.9484 191.739 81.0531 194.494 78.8661C195.304 78.2233 195.994 77.482 196.711 76.7412C197.57 75.8526 198.587 75.1001 199.378 74.1501C202.396 70.5282 202.925 64.577 201.457 60.2163C200.732 58.0611 199.645 56.1483 198.331 54.3003C196.763 52.0948 194.226 51.1498 191.704 50.4328C187.701 49.2945 183.812 48.3953 179.62 49.3475C177.091 49.9217 174.99 51.2135 172.978 52.7946C171.187 54.2014 169.238 56.3449 168.583 58.5959C168.072 60.3512 168.284 62.4038 168.377 64.2061C168.485 66.3102 168.643 68.3821 169.103 70.4431C169.538 72.3922 170.311 74.4242 171.335 76.1374C171.829 76.9642 172.446 77.5656 172.986 78.2852" stroke="#111111" stroke-width="3" stroke-linecap="round"/>
<path d="M176.012 73.745C176.722 73.1459 177.519 72.7724 178.351 72.3692C179.89 71.624 181.215 70.7691 182.509 69.6482C184.837 67.6318 187.189 65.7125 189.633 63.8392" stroke="#111111" stroke-linecap="round"/>
<path d="M175.462 66.7284C179.855 64.4164 184.033 61.8952 187.982 58.8864" stroke="#111111" stroke-linecap="round"/>
<path d="M228.167 100.742C232.418 101.154 236.594 102.781 240.427 104.595C241.525 105.114 242.568 105.729 243.628 106.318C244.631 106.876 245.756 107.283 246.715 107.91C249.775 109.911 252.196 112.729 254.367 115.624C255.311 116.882 256.171 118.185 257.067 119.476C258.018 120.846 258.28 122.488 258.817 124.04C260.173 127.956 260.304 132.098 260.304 136.222C260.304 138.099 260.266 139.982 260.313 141.859C260.361 143.81 260.81 145.737 260.902 147.69C261.034 150.517 260.817 153.291 261.333 156.09C261.863 158.965 261.821 161.936 261.377 164.823C261.104 166.593 260.845 168.372 260.532 170.135C260.173 172.163 260.126 174.275 259.284 176.186C256.916 181.555 251.106 183.535 247.006 187.18" stroke="#111111" stroke-linecap="round"/>
<path d="M193.338 114.199C193.338 116.797 193.412 119.403 193.145 121.991C192.677 126.524 192.786 130.748 193.884 135.184C194.69 138.441 194.461 141.898 195.423 145.105C195.798 146.355 196.357 147.544 196.663 148.816C197.091 150.596 197.292 152.392 197.841 154.146C198.759 157.074 199.219 160.129 200.515 162.923C201.245 164.498 202.101 166.055 202.617 167.717C202.977 168.875 203.036 170.048 203.259 171.226C203.726 173.689 204.514 176.069 204.886 178.561C205.312 181.408 205.37 184.306 205.37 187.18" stroke="#111111" stroke-linecap="round"/>
<path d="M254.763 116.732C252.791 114.562 248.195 113.368 246.056 115.993C241.096 122.079 242.276 130.119 242.819 137.383C243.404 145.196 242.46 153.04 243.11 160.83C243.274 162.805 243.365 164.945 243.365 166.916" stroke="#111111" stroke-linecap="round"/>
<path d="M244.948 165.966C243.707 166.498 242.409 167.993 241.447 168.886C239.593 170.61 237.812 172.454 236.065 174.287C233.401 177.079 230.138 179.024 227.296 181.604C225.136 183.565 222.526 185.139 219.917 186.424C217.96 187.388 215.872 188.66 213.769 189.264C211.47 189.926 209.349 189.006 207.111 188.447C204.267 187.735 201.625 186.777 198.633 187.057C196.901 187.219 197.192 188.435 198.369 189.115C200.581 190.393 202.632 192.064 204.895 193.196" stroke="#111111" stroke-linecap="round"/>
<path d="M247.329 186.842C246.375 188.094 245.234 189.272 243.757 189.892C242.008 190.626 240.053 190.988 238.229 191.475C236.358 191.974 234.669 192.471 233.043 193.549C231.014 194.894 228.996 196.346 226.602 196.949C222.733 197.922 218.738 198.615 215.286 200.708C213.9 201.548 212.705 202.407 211.652 203.624C210.59 204.853 209.08 205.377 207.785 206.283C205.73 207.721 204.639 209.904 202.755 211.485C202.162 211.982 201.704 212.592 201.125 213.099C200.081 214.012 198.795 214.354 197.436 214.354C195.884 214.354 194.762 213.473 193.569 212.561C193.395 212.428 193.069 212.14 193.069 211.89C193.069 211.841 193.373 211.798 193.428 211.687" stroke="#111111" stroke-linecap="round"/>
<path d="M206.061 202.844C204.523 204.552 202.58 205.782 201.023 207.461C200.247 208.298 199.544 209.218 198.622 209.909C197.832 210.502 196.824 210.688 195.892 210.954C194.883 211.243 193.827 211.547 192.773 211.547C191.495 211.547 189.412 211.961 188.687 210.564C188.512 210.229 188.271 209.634 188.39 209.247C188.491 208.918 189.387 208.864 189.669 208.708C191.235 207.842 192.878 207.16 194.45 206.299C196.499 205.175 199.204 204.164 200.236 201.869C201.038 200.087 202.19 198.419 203.191 196.746C203.938 195.499 204.625 194.306 205.78 193.44" stroke="#111111" stroke-linecap="round"/>
<path d="M211.395 204.248C211.366 206.059 210.572 207.07 209.539 208.49C208.423 210.024 207.538 211.776 205.843 212.748C204.914 213.28 202.735 213.4 201.85 212.81" stroke="#111111" stroke-linecap="round"/>
<path d="M257.435 179.684C257.476 181.832 257.657 183.976 257.685 186.125C257.729 189.549 256.938 192.788 256.437 196.153C256.071 198.616 255.99 200.864 256.219 203.328C256.449 205.799 256.469 208.29 255.767 210.689C255.183 212.682 254.248 214.616 253.989 216.694C253.802 218.185 253.626 219.55 253.193 220.998C252.066 224.767 249.918 228.003 247.033 230.668C245.285 232.282 243.406 233.756 241.636 235.347C240.133 236.699 238.66 238.076 237.067 239.324C234.585 241.267 232.397 243.478 229.846 245.344C227.446 247.099 225.044 248.972 222.765 250.881C221.664 251.803 220.622 252.806 219.646 253.86C219.194 254.348 218.795 254.95 218.273 255.341" stroke="#111111" stroke-linecap="round"/>
<path d="M257.716 190.352C257.303 191.455 256.955 192.707 256.141 193.596C255.422 194.381 254.284 194.746 253.349 195.202C250.081 196.795 246.473 198.05 242.9 198.742C239.411 199.419 235.82 199.595 232.294 200.006C229.977 200.275 227.659 200.537 225.323 200.396C223.614 200.292 221.842 200.146 220.207 199.616C219.659 199.438 219.136 199.195 218.554 199.195" stroke="#111111" stroke-linecap="round"/>
<path d="M202.412 196.809C200.612 197.731 198.962 199.224 197.366 200.458C195.345 202.021 193.415 203.662 191.463 205.308C186.905 209.152 181.821 212.439 177.598 216.663C176.124 218.137 174.596 219.54 173.075 220.967C170.191 223.674 167.508 226.52 164.84 229.436C162.589 231.897 160.324 234.341 158.103 236.829C156.207 238.95 154.361 241.432 153.759 244.268C153.32 246.335 153.112 248.701 153.018 250.811C152.935 252.679 153.37 254.469 153.704 256.293C153.982 257.809 154.022 259.346 154.43 260.839C154.915 262.621 155.838 264.204 156.902 265.697C157.693 266.808 158.363 267.993 159.475 268.817C161.011 269.954 162.583 271.152 164.403 271.796C166.285 272.461 168.493 272.185 170.455 272.185C171.849 272.185 173.179 272.23 174.541 271.905C175.38 271.704 176.187 271.437 177.005 271.203" stroke="#111111" stroke-linecap="round"/>
<path d="M213.22 203.827C213.625 204.612 213.974 205.558 214.733 206.073C215.162 206.364 215.243 206.75 215.201 207.297C215.132 208.185 214.496 208.652 213.797 209.13C210.921 211.093 207.896 212.789 205.079 214.853C201.542 217.446 198.374 220.39 195.019 223.19C192.53 225.267 190.164 227.275 188.336 229.997C186.568 232.631 185.035 235.408 183.213 238.014C181.696 240.183 179.991 242.228 178.916 244.666C178.277 246.114 177.926 247.646 177.333 249.103C176.762 250.505 176.471 251.927 176.272 253.423C175.969 255.705 175.631 257.861 175.984 260.161C176.319 262.345 176.671 264.393 176.725 266.602C176.79 269.27 177.755 271.816 179.306 273.971C180.986 276.306 183.158 278.22 185.989 278.923C188.094 279.446 190.366 279.983 192.547 280.038C195.655 280.117 198.418 279.866 201.437 279.126C204.633 278.342 207.447 277.013 210.381 275.57C212.361 274.596 214.473 273.908 216.425 272.887C218.921 271.583 221.426 270.269 223.857 268.848C226.666 267.205 229.367 265.431 231.935 263.436C233.837 261.959 236.103 261.007 238.127 259.716C240.221 258.381 242.152 256.769 244.147 255.295C246.183 253.791 248.292 252.39 250.347 250.912C252.185 249.59 254.177 248.291 255.782 246.685C257.172 245.296 258.062 243.565 259.182 241.975C260.42 240.219 261.956 238.01 259.837 236.111C258.822 235.202 257.599 234.829 256.788 233.67C255.974 232.508 255.283 231.268 254.379 230.169C253.3 228.859 251.853 227.989 250.417 227.128" stroke="#111111" stroke-linecap="round"/>
<path d="M261.085 237.234C262.296 236.164 263.435 235.094 264.532 233.912C265.714 232.638 266.972 232.451 268.665 232.43C271.268 232.399 273.867 232.573 276.463 232.29C281.325 231.759 285.708 230.199 290.281 228.531C292.427 227.749 294.757 226.889 296.145 224.96C296.697 224.193 297.58 222.535 297.097 221.513C296.616 220.496 294.478 220.629 293.572 220.702C291.763 220.847 289.994 221.263 288.176 221.341C283.683 221.536 279.135 220.649 274.794 219.548C272.996 219.092 271.314 218.583 269.632 217.801C267.628 216.87 265.865 216.411 263.643 216.46C259.474 216.552 258.478 220.692 256.281 223.369C255.773 223.989 254.896 225.552 253.989 225.584C252.934 225.62 251.884 225.55 250.838 225.724" stroke="#111111" stroke-linecap="round"/>
<path d="M189.5 49C187.5 54.5 189 51.5 188.5 57L191.5 53.5C191.833 52.8333 194.156 51.422 196 50.5L200 48.5C201 48 204 47 206.5 47C208.5 47 212.167 48.5 213.5 49C215.167 49.8333 218.2 51.6 219 52C220 52.5 223.5 55 224 56.5C224.379 57.6384 225.333 60.6667 226 62L227.5 69L230.5 66.5C232 66 234.7 65 236.5 68C238 70.5 237 73.5 236.5 75.5C236 77.5 233.5 79.5 232 80C230.939 80.3536 228.333 79.5 227.5 79L228.5 83.5L233 82L237 80C238.5 79.1667 242.3 77.3 243.5 76.5C245 75.5 248.078 71.7659 249 69C250 66 246.55 58.9998 249 55.5C253 49.7857 254.118 41.382 253 42.5C252 43.5 247.069 46.4367 247.5 45C249 40 249.867 23.7408 248.5 27.5C246.5 33 238 35.5 240 34.5C241.6 33.7 241.5 25 240 22C232 28 226.671 30.4728 227 28.5C227.5 25.5 226.833 21.6667 226.5 20C223.167 22.5 216.5 30 212.5 31C208.711 31.9471 204.5 34.5 201.5 34.5C198.5 34.5 197 34.5 195.5 35.5C194 36.5 193 37.5 192.5 39.5C192 41.5 191.5 43.5 189.5 49Z" fill="#FF9C09"/>
<path d="M205 106C208 104 213.5 102 214.5 103L215.5 108L217 111.5L220 112L224.5 108L228 104.5L228.5 100.5L235 102L243.5 106L250.5 110L255.5 116L252.5 114.5L248 113.5L244.5 116.5L242.5 120C242.5 121.167 241.5 123.4 241.5 125C241.5 126.6 242 132.167 242 134.5V146V160L242.5 166.5C240.167 168.167 236.5 172.5 235 174C234.151 174.849 231.333 177.833 229.5 179L223 184L214 188.5H209.5L205 187V179L202.5 167.5L199.5 160L197 151L195 143.5L194 137L192.5 125.5V115L195.5 112L205 106Z" fill="#FF9C09"/>
<path d="M189.5 49C187.5 54.5 189 51.5 188.5 57L191.5 53.5C191.833 52.8333 194.156 51.422 196 50.5L200 48.5C201 48 204 47 206.5 47C208.5 47 212.167 48.5 213.5 49C215.167 49.8333 218.2 51.6 219 52C220 52.5 223.5 55 224 56.5C224.379 57.6384 225.333 60.6667 226 62L227.5 69L230.5 66.5C232 66 234.7 65 236.5 68C238 70.5 237 73.5 236.5 75.5C236 77.5 233.5 79.5 232 80C230.939 80.3536 228.333 79.5 227.5 79L228.5 83.5L233 82L237 80C238.5 79.1667 242.3 77.3 243.5 76.5C245 75.5 248.078 71.7659 249 69C250 66 246.55 58.9998 249 55.5C253 49.7857 254.118 41.382 253 42.5C252 43.5 247.069 46.4367 247.5 45C249 40 249.867 23.7408 248.5 27.5C246.5 33 238 35.5 240 34.5C241.6 33.7 241.5 25 240 22C232 28 226.671 30.4728 227 28.5C227.5 25.5 226.833 21.6667 226.5 20C223.167 22.5 216.5 30 212.5 31C208.711 31.9471 204.5 34.5 201.5 34.5C198.5 34.5 197 34.5 195.5 35.5C194 36.5 193 37.5 192.5 39.5C192 41.5 191.5 43.5 189.5 49Z" stroke="#FF9C09"/>
<path d="M205 106C208 104 213.5 102 214.5 103L215.5 108L217 111.5L220 112L224.5 108L228 104.5L228.5 100.5L235 102L243.5 106L250.5 110L255.5 116L252.5 114.5L248 113.5L244.5 116.5L242.5 120C242.5 121.167 241.5 123.4 241.5 125C241.5 126.6 242 132.167 242 134.5V146V160L242.5 166.5C240.167 168.167 236.5 172.5 235 174C234.151 174.849 231.333 177.833 229.5 179L223 184L214 188.5H209.5L205 187V179L202.5 167.5L199.5 160L197 151L195 143.5L194 137L192.5 125.5V115L195.5 112L205 106Z" stroke="#FF9C09"/>
<path d="M224.5 200.5L219.5 199L225.5 197L234 193L237.5 191L242 189.5L247.5 186L250 184L253.5 182.5L257.5 179.5V187.5V190.5L257 193L254 195.5L248.5 197.5L242 199C240.167 199 237.5 200 235 200C233.558 200 227 201 224.5 200.5Z" fill="#FF9C09" stroke="#FF9C09"/>
<path d="M261 237L251 227L251.5 225.5C252 225.333 253.3 225 254.5 225C255.7 225 256 224 256 223.5L259 219.5L264 216L269 217.5L275.5 219.5L284 221.5H292.5H297.5L296 225L291.5 228.5L282 231L272.5 232H265.5L261 237Z" fill="black"/>
<defs>
<filter id="filter0_f_19_176" x="142" y="19" width="163.5" height="265.5" filterUnits="userSpaceOnUse" color-interpolation-filters="sRGB">
<feFlood flood-opacity="0" result="BackgroundImageFix"/>
<feBlend mode="normal" in="SourceGraphic" in2="BackgroundImageFix" result="shape"/>
<feGaussianBlur stdDeviation="2" result="effect1_foregroundBlur_19_176"/>
</filter>
<filter id="filter1_f_19_176" x="152.5" y="51.5" width="111.5" height="215.5" filterUnits="userSpaceOnUse" color-interpolation-filters="sRGB">
<feFlood flood-opacity="0" result="BackgroundImageFix"/>
<feBlend mode="normal" in="SourceGraphic" in2="BackgroundImageFix" result="shape"/>
<feGaussianBlur stdDeviation="2" result="effect1_foregroundBlur_19_176"/>
</filter>
</defs>
</svg>
